<svg width="32" height="32" viewBox="0 0 32 32" fill="none" xmlns="http://www.w3.org/2000/svg">
<path d="M16 4C22.6274 4 28 9.37258 28 16C28 22.6274 22.6274 28 16 28C9.37258 28 4 22.6274 4 16" stroke="#EC8514" stroke-width="1.5" stroke-linecap="round" stroke-linejoin="round"/>
<path d="M20.6668 16H15.3335V9.33337" stroke="#EC8514" stroke-width="1.5" stroke-linecap="round" stroke-linejoin="round"/>
<path d="M5.51557 10.0151L5.51614 10.0146C5.64614 9.88187 5.85907 9.87961 5.99184 10.0095C6.12462 10.1394 6.127 10.3524 5.99717 10.4852C5.86733 10.6181 5.6544 10.6206 5.52147 10.4908C5.38854 10.3611 5.3859 10.1482 5.51557 10.0151" stroke="#EC8514" stroke-width="1.5" stroke-linecap="round" stroke-linejoin="round"/>
<path d="M10.3197 6.15366L10.3191 6.15423C10.1891 6.28096 9.98098 6.27837 9.85417 6.14845C9.72737 6.01853 9.72982 5.81043 9.85966 5.68354C9.9895 5.55665 10.1976 5.55898 10.3246 5.68874C10.4515 5.8185 10.4494 6.0266 10.3197 6.15366" stroke="#EC8514" stroke-width="1.5" stroke-linecap="round" stroke-linejoin="round"/>
</svg>
