<svg width="24" height="24" viewBox="0 0 24 24" fill="none" xmlns="http://www.w3.org/2000/svg">
  <path fill-rule="evenodd" clip-rule="evenodd" d="M5.99776 2.99634C5.99776 5.2064 4.20615 6.998 1.99609 6.998C4.20615 6.998 5.99776 8.78961 5.99776 10.9997C5.99776 8.78961 7.78937 6.998 9.99943 6.998C7.78937 6.998 5.99776 5.2064 5.99776 2.99634Z" stroke="currentColor" stroke-width="1.5" stroke-linecap="round" stroke-linejoin="round"/>
  <path fill-rule="evenodd" clip-rule="evenodd" d="M17.0021 15.0015C17.0021 12.2389 14.7626 9.9994 12 9.9994C14.7626 9.9994 17.0021 7.75989 17.0021 4.99731C17.0021 7.75989 19.2416 9.9994 22.0042 9.9994C19.2416 9.9994 17.0021 12.2389 17.0021 15.0015Z" stroke="currentColor" stroke-width="1.5" stroke-linecap="round" stroke-linejoin="round"/>
  <path d="M17.0022 15.0015V16.0019" stroke="currentColor" stroke-width="1.5" stroke-linecap="round" stroke-linejoin="round"/>
  <path d="M17.0022 4.99724V3.99683" stroke="currentColor" stroke-width="1.5" stroke-linecap="round" stroke-linejoin="round"/>
  <path d="M9.99923 21.0039V22.0043" stroke="currentColor" stroke-width="1.5" stroke-linecap="round" stroke-linejoin="round"/>
  <path d="M9.99923 14.0009V13.0005" stroke="currentColor" stroke-width="1.5" stroke-linecap="round" stroke-linejoin="round"/>
  <path d="M5.99777 10.9998V12.0002" stroke="currentColor" stroke-width="1.5" stroke-linecap="round" stroke-linejoin="round"/>
  <path d="M5.99777 1.99585V2.99627" stroke="currentColor" stroke-width="1.5" stroke-linecap="round" stroke-linejoin="round"/>
  <path fill-rule="evenodd" clip-rule="evenodd" d="M9.99923 13.5007C9.99923 15.7108 8.20762 17.5024 5.99756 17.5024C8.20762 17.5024 9.99923 19.294 9.99923 21.5041C9.99923 19.294 11.7908 17.5024 14.0009 17.5024C11.7908 17.5024 9.99923 15.7108 9.99923 13.5007Z" stroke="currentColor" stroke-width="1.5" stroke-linecap="round" stroke-linejoin="round"/>
</svg>
