<svg width="24" height="24" viewBox="0 0 24 24" fill="none" xmlns="http://www.w3.org/2000/svg">
<path fill-rule="evenodd" clip-rule="evenodd" d="M3 16.041V7.95896C3 7.24396 3.381 6.58396 4 6.22696L11 2.18596C11.619 1.82896 12.381 1.82896 13 2.18596L20 6.22696C20.619 6.58396 21 7.24496 21 7.95896V16.042C21 16.757 20.619 17.417 20 17.774L13 21.815C12.381 22.172 11.619 22.172 11 21.815L4 17.774C3.381 17.416 3 16.756 3 16.041Z" stroke="currentColor" stroke-width="1.5" stroke-linecap="round" stroke-linejoin="round"/>
<path d="M16.49 12.8601V9.39605L7.5 4.20605" stroke="currentColor" stroke-width="1.5" stroke-linecap="round" stroke-linejoin="round"/>
<path d="M9.04 17L6 15.24" stroke="currentColor" stroke-width="1.5" stroke-linecap="round" stroke-linejoin="round"/>
<path d="M12 12V22.08" stroke="currentColor" stroke-width="1.5" stroke-linecap="round" stroke-linejoin="round"/>
<path d="M3.26807 6.95898L12.0001 12L20.7321 6.95898" stroke="currentColor" stroke-width="1.5" stroke-linecap="round" stroke-linejoin="round"/>
</svg>
