<svg width="24" height="24" viewBox="0 0 24 24" fill="none" xmlns="http://www.w3.org/2000/svg">
<path fill-rule="evenodd" clip-rule="evenodd" d="M8 4H16C16.5523 4 17 4.44772 17 5V11C17 13.7614 14.7614 16 12 16V16C9.23858 16 7 13.7614 7 11V5C7 4.44772 7.44772 4 8 4Z" stroke="#676F71" stroke-width="1.5" stroke-linecap="round" stroke-linejoin="round"/>
<path d="M16.6733 12.7801L18.5653 11.8341C19.7511 11.2412 20.5001 10.0293 20.5001 8.70361V7.3667C20.5001 6.88345 20.1084 6.4917 19.6251 6.4917H17.0001" stroke="#676F71" stroke-width="1.5" stroke-linecap="round" stroke-linejoin="round"/>
<path d="M12 20V16" stroke="#676F71" stroke-width="1.5" stroke-linecap="round" stroke-linejoin="round"/>
<path d="M16 20H8" stroke="#676F71" stroke-width="1.5" stroke-linecap="round" stroke-linejoin="round"/>
<path d="M7.32677 12.7801L5.43477 11.8341C4.24903 11.2412 3.50001 10.0293 3.5 8.70361V7.3667C3.5 6.88345 3.89175 6.4917 4.375 6.4917H7" stroke="#676F71" stroke-width="1.5" stroke-linecap="round" stroke-linejoin="round"/>
</svg>
