<svg width="40" height="40" viewBox="0 0 40 40" fill="none" xmlns="http://www.w3.org/2000/svg">
<path fill-rule="evenodd" clip-rule="evenodd" d="M12.4933 5H27.5083C31.645 5 35 8.35333 35 12.4933V27.5083C35 31.645 31.6467 35 27.5067 35H12.4933C8.355 35 5 31.6467 5 27.5067V12.4933C5 8.355 8.35333 5 12.4933 5V5Z" stroke="#676F71" stroke-width="1.5" stroke-linecap="round" stroke-linejoin="round"/>
<path d="M28.2485 11.1883C27.9385 11.19 27.6868 11.4416 27.6868 11.7516C27.6868 12.0616 27.9402 12.3133 28.2502 12.3133C28.5602 12.3133 28.8118 12.0616 28.8118 11.7516C28.8135 11.44 28.5602 11.1883 28.2485 11.1883" stroke="#676F71" stroke-width="1.5" stroke-linecap="round" stroke-linejoin="round"/>
<path d="M24.2426 15.7574C26.5858 18.1005 26.5858 21.8995 24.2426 24.2426C21.8995 26.5858 18.1005 26.5858 15.7574 24.2426C13.4142 21.8995 13.4142 18.1005 15.7574 15.7574C18.1005 13.4142 21.8995 13.4142 24.2426 15.7574" stroke="#676F71" stroke-width="1.5" stroke-linecap="round" stroke-linejoin="round"/>
</svg>
