<svg width="32" height="32" viewBox="0 0 32 32" fill="none" xmlns="http://www.w3.org/2000/svg">
<path fill-rule="evenodd" clip-rule="evenodd" d="M28 21.388V10.612C28 9.65862 27.492 8.77862 26.6667 8.30262L17.3333 2.91462C16.508 2.43862 15.492 2.43862 14.6667 2.91462L5.33333 8.30128C4.508 8.77862 4 9.65862 4 10.612V21.3893C4 22.3426 4.508 23.2226 5.33333 23.6986L14.6667 29.0866C15.492 29.5626 16.508 29.5626 17.3333 29.0866L26.6667 23.6986C27.492 23.2213 28 22.3413 28 21.388Z" stroke="#858C8D" stroke-width="1.5" stroke-linecap="round" stroke-linejoin="round"/>
<path d="M15.9999 29.44V16" stroke="#858C8D" stroke-width="1.5" stroke-linecap="round" stroke-linejoin="round"/>
<path d="M16 15.9998L27.64 9.27979" stroke="#858C8D" stroke-width="1.5" stroke-linecap="round" stroke-linejoin="round"/>
<path d="M4.36011 9.27979L16.0001 15.9998" stroke="#858C8D" stroke-width="1.5" stroke-linecap="round" stroke-linejoin="round"/>
</svg>
