<svg width="125" height="36" viewBox="0 0 125 36" fill="none" xmlns="http://www.w3.org/2000/svg">
<path d="M5.93277 6.41359C7.34583 5.6158 8.83561 5.12342 10.4021 4.94267C11.9686 4.76192 13.484 4.86788 14.9482 5.24807C16.4124 5.62827 17.7807 6.27647 19.0339 7.19268C20.2871 8.10888 21.3293 9.24947 22.1541 10.6269C22.9597 12.0043 23.4521 13.4565 23.6375 14.9836C23.8229 16.5106 23.7142 17.9877 23.3242 19.415C22.9342 20.8423 22.2628 22.1761 21.3165 23.3977C20.3702 24.6193 19.1937 25.629 17.7807 26.4143C16.9047 26.9067 16.0096 27.2807 15.0824 27.5362C14.1553 27.7918 13.2218 27.9351 12.2755 27.9725C11.3292 28.0099 10.4021 27.9289 9.48139 27.7419C8.56067 27.5549 7.67831 27.262 6.82153 26.8756V19.7703C7.25631 20.4185 7.79979 20.9483 8.44558 21.3534C9.09136 21.7647 9.77551 22.0452 10.5044 22.2073C11.2333 22.3693 11.975 22.4005 12.7295 22.2945C13.484 22.1886 14.2193 21.9455 14.9162 21.5528C15.6515 21.1415 16.2589 20.6242 16.7385 19.9947C17.218 19.3652 17.5569 18.6858 17.7615 17.9503C17.9661 17.2149 18.0173 16.4669 17.9213 15.6879C17.8254 14.9088 17.5697 14.1671 17.1477 13.4503C16.7257 12.7336 16.195 12.1414 15.5492 11.674C14.9034 11.2065 14.2001 10.87 13.4392 10.6643C12.6783 10.4586 11.9047 10.4025 11.1054 10.496C10.3062 10.5895 9.54533 10.8388 8.81003 11.2502C7.92128 11.7425 7.21795 12.397 6.70004 13.2197C6.18214 14.0424 5.88162 14.915 5.7985 15.8499V35.9566H0.0375962V17.2273C-0.0519185 16.1553 0.0184144 15.0957 0.248595 14.0487C0.478775 13.0016 0.843228 12.0043 1.34835 11.057C1.85346 10.1096 2.49285 9.237 3.26012 8.43922C4.02739 7.64143 4.92254 6.95583 5.93277 6.39489V6.41359Z" fill="#151617"/>
<path d="M49.258 21.565C49.258 21.8019 49.3411 22.0013 49.5074 22.1509C49.6736 22.3005 49.8782 22.3815 50.1212 22.3815V27.9785H49.6736C49.533 27.9785 49.3923 27.9723 49.2516 27.9536V35.9501L43.4843 36V26.3144C43.414 26.3642 43.3437 26.4016 43.2733 26.4141C41.8411 27.2119 40.3449 27.7105 38.7784 27.8975C37.2119 28.0845 35.6966 27.9847 34.2196 27.6045C32.7426 27.2243 31.3743 26.5699 30.1211 25.6475C28.8615 24.725 27.8257 23.572 27.0008 22.1759C26.1824 20.7984 25.6773 19.3462 25.4919 17.8192C25.3065 16.2922 25.4152 14.815 25.8052 13.3753C26.1952 11.9355 26.8666 10.6017 27.8129 9.36141C28.7592 8.1211 29.9356 7.1114 31.3487 6.30739C32.7809 5.5096 34.2771 5.01722 35.8436 4.83647C37.4101 4.65572 38.9255 4.76167 40.4025 5.14187C41.8795 5.52206 43.2478 6.1765 44.501 7.09894C45.7542 8.02138 46.7964 9.1682 47.6212 10.5456C48.1647 11.4681 48.5611 12.4092 48.8168 13.369C49.0726 14.3289 49.2069 15.2949 49.2261 16.2673H49.2516V21.5526L49.258 21.565ZM40.2938 11.1938C39.5585 10.7825 38.7912 10.5332 37.9856 10.4397C37.1799 10.3462 36.4063 10.4023 35.6518 10.608C34.8973 10.8136 34.2004 11.1502 33.5418 11.6177C32.8832 12.0851 32.3461 12.6772 31.9305 13.394C31.5149 14.1107 31.2528 14.8587 31.1569 15.644C31.061 16.4293 31.1121 17.1897 31.3167 17.9314C31.5213 18.6731 31.8602 19.3649 32.3398 20.0006C32.8193 20.6364 33.4267 21.1662 34.162 21.5713C34.8973 21.9764 35.6646 22.2319 36.4702 22.3254C37.2759 22.4189 38.0559 22.3628 38.8168 22.1572C39.5777 21.9515 40.2874 21.6149 40.9396 21.1475C41.5917 20.68 42.1352 20.0879 42.5508 19.3711C42.9664 18.6544 43.2286 17.9065 43.3245 17.1211C43.4204 16.3358 43.3692 15.5754 43.1646 14.8337C42.96 14.092 42.6212 13.4002 42.1288 12.7645C41.6365 12.1287 41.0291 11.599 40.2938 11.1938Z" fill="#151617"/>
<path d="M53.318 27.1559C52.2694 27.7542 51.1633 28.0347 49.9868 27.9973V22.3256H50.0124C50.2554 22.3256 50.46 22.2445 50.6262 22.0825C50.7924 21.9204 50.8756 21.721 50.8756 21.4841V16.7597C50.8436 15.7189 50.9459 14.6967 51.1889 13.6933C51.4318 12.6898 51.8091 11.7362 52.3142 10.8324C52.8193 9.9287 53.4523 9.09352 54.2132 8.32689C54.9741 7.56027 55.8436 6.89337 56.8219 6.33243C58.2541 5.53464 59.7503 5.04226 61.3168 4.86151C62.8833 4.68076 64.3987 4.78672 65.8757 5.16691C67.3527 5.54711 68.721 6.20154 69.9742 7.12398C71.2274 8.04642 72.2696 9.19324 73.0944 10.5707C73.8105 11.7798 74.2836 13.0264 74.5074 14.3165C74.7312 15.6067 74.7504 16.8782 74.5586 18.1372C74.8719 17.5264 75.1149 16.8657 75.2939 16.1676C75.4729 15.4696 75.556 14.7466 75.556 13.9987C75.556 12.7708 75.3259 11.624 74.8719 10.552C74.4179 9.47995 73.7913 8.53257 72.9857 7.71609C72.1801 6.89961 71.2401 6.23894 70.166 5.73409C69.0918 5.22924 67.9409 4.94877 66.7197 4.88021V0C68.6442 0.0685598 70.4473 0.479918 72.1289 1.24031C73.8105 2.0007 75.2811 3.0104 76.5343 4.2694C77.7811 5.52841 78.7722 6.9931 79.4947 8.66346C80.2172 10.3338 80.5816 12.1101 80.5816 14.0049C80.5816 15.8996 80.2044 17.7445 79.4563 19.446C78.7082 21.1476 77.6852 22.631 76.3872 23.89C75.0893 25.149 73.5803 26.1524 71.8412 26.8941C70.102 27.6358 68.2478 28.0035 66.2721 28.0035H62.3143C61.0227 27.9537 59.7759 27.7106 58.5802 27.2743C57.3846 26.838 56.2848 26.2335 55.2938 25.4481C55.0316 25.7909 54.7375 26.1026 54.405 26.383C54.0725 26.6635 53.7081 26.9253 53.3053 27.1621L53.318 27.1559ZM59.7119 11.2126C58.9766 11.624 58.3692 12.1475 57.8897 12.7833C57.4101 13.419 57.0713 14.1108 56.8667 14.8525C56.6621 15.5942 56.6109 16.3546 56.7068 17.1399C56.8027 17.9253 57.0585 18.6732 57.4805 19.3899C57.9025 20.1067 58.4396 20.6988 59.0917 21.1663C59.7439 21.6337 60.4536 21.9703 61.2145 22.176C61.9754 22.3816 62.7554 22.4377 63.5611 22.3442C64.3667 22.2508 65.134 22.0015 65.8693 21.5901C66.6046 21.1787 67.212 20.6552 67.6915 20.0194C68.1711 19.3837 68.51 18.6919 68.7146 17.9502C68.9128 17.2085 68.9703 16.4481 68.8744 15.6628C68.7785 14.8775 68.5227 14.1295 68.1007 13.4128C67.6787 12.696 67.1417 12.1039 66.4895 11.6365C65.8373 11.169 65.1276 10.8324 64.3667 10.6268C63.6058 10.4211 62.8258 10.365 62.0201 10.4585C61.2145 10.552 60.4472 10.8013 59.7119 11.2126Z" fill="#151617"/>
<path d="M96.8219 16.1177C96.8411 15.1828 96.9818 14.2417 97.2439 13.3068C97.5061 12.3719 97.8961 11.4619 98.4204 10.5706C98.9447 9.66686 99.5713 8.86285 100.307 8.15855C101.042 7.45426 101.841 6.84968 102.704 6.3573C103.567 5.86491 104.482 5.48472 105.441 5.22295C106.4 4.96117 107.378 4.81159 108.376 4.77419H108.638L110.236 4.75549V10.3774L108.376 10.3961C107.378 10.446 106.438 10.7264 105.543 11.225C104.654 11.7299 103.938 12.4404 103.395 13.3566C103.254 13.6122 103.126 13.8739 103.018 14.1357C102.909 14.3975 102.813 14.6593 102.743 14.9148H109.149C109.264 14.9148 109.392 14.9335 109.527 14.9647C110.364 15.0644 111.144 15.3075 111.86 15.6814C112.576 16.0554 113.197 16.5291 113.721 17.0963C114.245 17.6634 114.661 18.3241 114.968 19.0658C115.275 19.8075 115.428 20.5928 115.428 21.428C115.428 22.3317 115.256 23.1731 114.917 23.9585C114.578 24.7438 114.111 25.4294 113.516 26.0153C112.922 26.6011 112.225 27.0686 111.419 27.4051C110.614 27.7417 109.757 27.9225 108.849 27.9412H95.7158C94.6864 27.9412 93.6697 27.8165 92.6787 27.5734C91.6876 27.3304 90.7349 26.9564 89.8334 26.464C88.9318 25.9716 88.1006 25.3671 87.3334 24.6503C86.5661 23.9335 85.9075 23.1108 85.3704 22.1697C84.8142 21.2472 84.405 20.2999 84.1492 19.3213C83.8935 18.3428 83.772 17.358 83.772 16.3733V10.4709H89.5393V16.473C89.5584 16.9654 89.6288 17.4577 89.7631 17.9564C89.8973 18.455 90.0891 18.9162 90.3513 19.3587C90.9076 20.3123 91.662 21.0478 92.6083 21.5589C93.5546 22.07 94.5457 22.3317 95.5943 22.3504L109.22 22.2756C109.412 22.2071 109.565 22.0949 109.68 21.9453C109.795 21.7957 109.853 21.6212 109.853 21.4342C109.853 21.2472 109.802 21.0852 109.693 20.9481C109.584 20.8109 109.456 20.6988 109.303 20.6177H102.57V20.6427L96.8859 20.6177V20.5928L96.8347 16.124L96.8219 16.1177Z" fill="#DC2655"/>
<path d="M117.832 24.3698H117.858C117.769 25.2922 117.468 26.1586 116.944 26.975C116.419 27.7915 115.71 28.446 114.821 28.9446C114.277 29.25 113.708 29.4681 113.12 29.599C112.526 29.7237 111.937 29.7673 111.349 29.7237C110.914 29.6925 109.891 29.599 109.399 29.5492L109.501 35.2521C110.761 35.545 111.592 35.4391 112.922 35.3206C114.591 35.1773 116.183 34.6662 117.705 33.7999C118.715 33.2202 119.61 32.5284 120.377 31.7306C121.145 30.9328 121.784 30.0602 122.289 29.1129C122.794 28.1655 123.159 27.1745 123.376 26.1336C123.593 25.0928 123.67 24.0394 123.6 22.9674V11.4681L117.832 11.4182V24.3698Z" fill="#DC2655"/>
<path d="M124.661 3.83928C124.431 3.3095 124.124 2.85451 123.727 2.46185C123.331 2.06919 122.864 1.75755 122.327 1.52694C121.79 1.29633 121.208 1.18414 120.594 1.18414C119.981 1.18414 119.399 1.29633 118.849 1.52694C118.299 1.75755 117.819 2.06919 117.423 2.46185C117.027 2.85451 116.701 3.31573 116.464 3.83928C116.227 4.36282 116.112 4.93 116.112 5.52834C116.112 6.12668 116.227 6.68762 116.464 7.2174C116.701 7.74718 117.02 8.20217 117.423 8.59483C117.826 8.98749 118.299 9.29289 118.849 9.51727C119.399 9.74165 119.981 9.8476 120.594 9.8476C121.208 9.8476 121.784 9.73542 122.327 9.51727C122.871 9.29913 123.337 8.98749 123.727 8.59483C124.117 8.20217 124.431 7.74095 124.661 7.2174C124.891 6.68762 125 6.12668 125 5.52834C125 4.93 124.885 4.36906 124.661 3.83928Z" fill="#DC2655"/>
</svg>
