<svg width="24" height="24" viewBox="0 0 24 24" fill="none" xmlns="http://www.w3.org/2000/svg">
<path fill-rule="evenodd" clip-rule="evenodd" d="M11.9992 14.884L14.0052 15.938C14.3952 16.143 14.8522 15.812 14.7772 15.377L14.3942 13.144L16.0172 11.564C16.3332 11.256 16.1592 10.719 15.7222 10.656L13.4802 10.33L12.4772 8.297C12.2822 7.901 11.7182 7.901 11.5222 8.297L10.5202 10.33L8.27824 10.656C7.84124 10.719 7.66724 11.256 7.98324 11.564L9.60624 13.144L9.22324 15.377C9.14824 15.812 9.60524 16.143 9.99524 15.938L12.0012 14.884H11.9992V14.884Z" stroke="#676F71" stroke-width="1.5" stroke-linecap="round" stroke-linejoin="round"/>
<path d="M21.4999 12H20.3999" stroke="#676F71" stroke-width="1.5" stroke-linecap="round" stroke-linejoin="round"/>
<path d="M3.6 12H2.5" stroke="#676F71" stroke-width="1.5" stroke-linecap="round" stroke-linejoin="round"/>
<path d="M18.8601 5.13989L17.8101 6.18989" stroke="#676F71" stroke-width="1.5" stroke-linecap="round" stroke-linejoin="round"/>
<path d="M5.16016 18.8901L6.22016 17.8301" stroke="#676F71" stroke-width="1.5" stroke-linecap="round" stroke-linejoin="round"/>
<path d="M5.14014 5.15991L6.19014 6.21991" stroke="#676F71" stroke-width="1.5" stroke-linecap="round" stroke-linejoin="round"/>
<path d="M18.8901 18.8601L17.8301 17.8101" stroke="#676F71" stroke-width="1.5" stroke-linecap="round" stroke-linejoin="round"/>
<path d="M12 20.4399V21.4999" stroke="#676F71" stroke-width="1.5" stroke-linecap="round" stroke-linejoin="round"/>
<path d="M12 2.5V3.56" stroke="#676F71" stroke-width="1.5" stroke-linecap="round" stroke-linejoin="round"/>
</svg>
