<svg width="32" height="32" viewBox="0 0 32 32" fill="none" xmlns="http://www.w3.org/2000/svg">
<path d="M21.3355 24.6699H10.8911" stroke="#858C8D" stroke-width="1.5" stroke-linecap="round" stroke-linejoin="round"/>
<path d="M25.3317 24.6702H28.0048C28.7415 24.6702 29.3387 24.073 29.3387 23.3363V15.1801C29.3387 14.8409 29.2739 14.5048 29.1479 14.1898L27.3409 9.67336C26.9357 8.66063 25.9548 7.99658 24.864 7.99658H20.0015" stroke="#858C8D" stroke-width="1.5" stroke-linecap="round" stroke-linejoin="round"/>
<path d="M29.3385 17.3336H24.6699C24.3015 17.3336 24.0029 17.035 24.0029 16.6667V11.998H28.2714" stroke="#858C8D" stroke-width="1.5" stroke-linecap="round" stroke-linejoin="round"/>
<path d="M24.7457 23.2608C25.318 23.833 25.4892 24.6936 25.1795 25.4413C24.8699 26.189 24.1403 26.6765 23.3311 26.6765C22.5218 26.6766 21.7922 26.1891 21.4825 25.4415C21.1728 24.6938 21.3439 23.8332 21.9161 23.261L21.9162 23.2608C22.2914 22.8856 22.8003 22.6748 23.331 22.6748C23.8616 22.6748 24.3705 22.8856 24.7457 23.2608V23.2608" stroke="#858C8D" stroke-width="1.5" stroke-linecap="round" stroke-linejoin="round"/>
<path d="M10.0728 23.2609C10.6451 23.8332 10.8163 24.6937 10.5067 25.4414C10.197 26.1891 9.46748 26.6766 8.65822 26.6767C7.84896 26.6767 7.11936 26.1893 6.80963 25.4416C6.4999 24.694 6.67104 23.8334 7.24324 23.2611L7.24364 23.2607C7.61883 22.8855 8.1277 22.6748 8.65829 22.6748C9.18887 22.6749 9.69771 22.8857 10.0728 23.2609V23.2609" stroke="#858C8D" stroke-width="1.5" stroke-linecap="round" stroke-linejoin="round"/>
<path d="M6.6628 24.67H3.99502C3.25834 24.67 2.66113 24.0728 2.66113 23.3361V6.6625C2.66113 5.92582 3.25834 5.32861 3.99502 5.32861H18.6678C19.4045 5.32861 20.0017 5.92582 20.0017 6.6625V18.6675" stroke="#858C8D" stroke-width="1.5" stroke-linecap="round" stroke-linejoin="round"/>
<path d="M20.0017 18.6674H2.66113" stroke="#858C8D" stroke-width="1.5" stroke-linecap="round" stroke-linejoin="round"/>
</svg>
