<svg width="40" height="40" viewBox="0 0 40 40" fill="none" xmlns="http://www.w3.org/2000/svg">
<path fill-rule="evenodd" clip-rule="evenodd" d="M12.5 5H27.5067C31.645 5 35 8.355 35 12.4933V27.5083C35 31.645 31.645 35 27.5067 35H12.4933C8.355 35 5 31.645 5 27.5067V12.5C5 8.35833 8.35833 5 12.5 5V5Z" stroke="#676F71" stroke-width="1.5" stroke-linecap="round" stroke-linejoin="round"/>
<path d="M29.1665 17.5835C29.1665 17.1693 28.8307 16.8335 28.4165 16.8335C28.0023 16.8335 27.6665 17.1693 27.6665 17.5835H29.1665ZM11.0221 25.1411C10.7777 24.8066 10.3085 24.7335 9.97406 24.9779C9.6396 25.2223 9.56656 25.6915 9.81091 26.0259L11.0221 25.1411ZM10.2995 24.8427C9.89039 24.9073 9.61108 25.2913 9.67568 25.7005C9.74028 26.1096 10.1243 26.3889 10.5335 26.3243L10.2995 24.8427ZM13.4165 24.5835L13.6549 25.2946C13.9004 25.2123 14.0861 25.0091 14.1461 24.7572C14.2061 24.5052 14.1318 24.2402 13.9497 24.0561L13.4165 24.5835ZM12.4165 12.5835L13.0771 12.2284C12.9545 12.0003 12.723 11.8516 12.4646 11.835C12.2062 11.8184 11.9575 11.9363 11.8067 12.1469L12.4165 12.5835ZM18.4165 17.5835L18.2392 18.3122C18.4586 18.3656 18.6904 18.3173 18.8702 18.1807C19.05 18.0441 19.1587 17.8338 19.1661 17.6082L18.4165 17.5835ZM27.4165 14.5835L26.7905 14.9966C26.9293 15.2069 27.1645 15.3335 27.4165 15.3335V14.5835ZM30.4165 14.5835L31.0405 14.9995C31.194 14.7694 31.2083 14.4735 31.0778 14.2296C30.9472 13.9857 30.6931 13.8335 30.4165 13.8335V14.5835ZM27.7925 17.1675C27.5627 17.5121 27.6558 17.9778 28.0005 18.2075C28.3451 18.4373 28.8108 18.3442 29.0405 17.9995L27.7925 17.1675ZM27.6665 17.5835C27.6665 20.9455 26.7066 23.7545 24.9791 25.7123C23.2619 27.6584 20.7258 28.8335 17.4165 28.8335V30.3335C21.1072 30.3335 24.0711 29.0086 26.1039 26.7047C28.1264 24.4125 29.1665 21.2215 29.1665 17.5835H27.6665ZM17.4165 28.8335C15.5611 28.8335 14.3139 28.3536 13.3735 27.6882C12.4102 27.0065 11.724 26.1018 11.0221 25.1411L9.81091 26.0259C10.5056 26.9768 11.3195 28.0722 12.507 28.9126C13.7175 29.7692 15.2719 30.3335 17.4165 30.3335V28.8335ZM10.5335 26.3243C10.5599 26.3201 10.5804 26.3154 10.5872 26.3138C10.5967 26.3116 10.6044 26.3096 10.6089 26.3084C10.6181 26.306 10.6256 26.3039 10.6294 26.3027C10.6376 26.3004 10.6451 26.2981 10.65 26.2965C10.6605 26.2933 10.6728 26.2894 10.6853 26.2853C10.711 26.2771 10.7463 26.2655 10.7888 26.2516C10.8742 26.2235 10.9936 26.1839 11.1352 26.1368C11.4185 26.0427 11.793 25.9177 12.1661 25.7929C12.5393 25.6682 12.9115 25.5436 13.1904 25.4502C13.3298 25.4035 13.4459 25.3646 13.5272 25.3374C13.5678 25.3238 13.5997 25.3131 13.6215 25.3058C13.6324 25.3021 13.6407 25.2994 13.6463 25.2975C13.6491 25.2965 13.6513 25.2958 13.6527 25.2953C13.6534 25.2951 13.654 25.2949 13.6543 25.2948C13.6545 25.2947 13.6546 25.2947 13.6547 25.2947C13.6548 25.2946 13.6548 25.2946 13.6548 25.2946C13.6549 25.2946 13.6549 25.2946 13.4165 24.5835C13.1781 23.8724 13.1781 23.8724 13.1781 23.8724C13.1781 23.8724 13.178 23.8724 13.178 23.8724C13.1779 23.8725 13.1778 23.8725 13.1776 23.8726C13.1772 23.8727 13.1767 23.8729 13.176 23.8731C13.1746 23.8736 13.1724 23.8743 13.1696 23.8752C13.164 23.8771 13.1557 23.8799 13.1448 23.8835C13.1231 23.8908 13.0912 23.9015 13.0506 23.9151C12.9694 23.9423 12.8534 23.9812 12.714 24.0279C12.4353 24.1212 12.0635 24.2457 11.6906 24.3703C11.3177 24.495 10.9442 24.6196 10.662 24.7134C10.5209 24.7604 10.4032 24.7993 10.3202 24.8266C10.2785 24.8403 10.2467 24.8507 10.2255 24.8576C10.2146 24.8611 10.2084 24.863 10.2058 24.8638C10.2041 24.8643 10.2064 24.8636 10.2108 24.8623C10.2128 24.8618 10.2187 24.8601 10.2266 24.858C10.2306 24.8569 10.2377 24.8551 10.2468 24.853C10.2532 24.8515 10.2733 24.8468 10.2995 24.8427L10.5335 26.3243ZM13.9497 24.0561C10.8719 20.9445 10.6414 16.3508 13.0263 13.0201L11.8067 12.1469C9.00498 16.0596 9.28111 21.4692 12.8833 25.1109L13.9497 24.0561ZM11.7559 12.9386C13.0591 15.3631 15.5085 17.648 18.2392 18.3122L18.5938 16.8547C16.3779 16.3157 14.2339 14.3806 13.0771 12.2284L11.7559 12.9386ZM19.1661 17.6082C19.2082 16.3282 19.6604 15.2641 20.3838 14.525C21.1031 13.7899 22.1317 13.3335 23.4165 13.3335V11.8335C21.7564 11.8335 20.3324 12.4329 19.3117 13.4758C18.2951 14.5146 17.7198 15.9505 17.6669 17.5588L19.1661 17.6082ZM23.4165 13.3335C24.322 13.3335 24.9918 13.5056 25.5096 13.782C26.0258 14.0576 26.4374 14.4615 26.7905 14.9966L28.0425 14.1704C27.5806 13.4705 26.9947 12.8744 26.2159 12.4587C25.4388 12.0439 24.516 11.8335 23.4165 11.8335V13.3335ZM27.4165 15.3335H30.4165V13.8335H27.4165V15.3335ZM29.7925 14.1675L27.7925 17.1675L29.0405 17.9995L31.0405 14.9995L29.7925 14.1675Z" fill="#676F71"/>
</svg>
